<?xml version="1.0" encoding="UTF-8"?>
<!DOCTYPE svg PUBLIC "-//W3C//DTD SVG 1.1//EN" "http://www.w3.org/Graphics/SVG/1.1/DTD/svg11.dtd">
<svg version="1.2" width="210mm" height="210mm" viewBox="0 0 21000 21000" preserveAspectRatio="xMidYMid" fill-rule="evenodd" stroke-width="28.222" stroke-linejoin="round" xmlns="http://www.w3.org/2000/svg" xmlns:ooo="http://xml.openoffice.org/svg/export" xmlns:xlink="http://www.w3.org/1999/xlink" xmlns:presentation="http://sun.com/xmlns/staroffice/presentation" xmlns:smil="http://www.w3.org/2001/SMIL20/" xmlns:anim="urn:oasis:names:tc:opendocument:xmlns:animation:1.0" xmlns:svg="urn:oasis:names:tc:opendocument:xmlns:svg-compatible:1.0" xml:space="preserve">
 <defs class="ClipPathGroup">
  <clipPath id="presentation_clip_path" clipPathUnits="userSpaceOnUse">
   <rect x="0" y="0" width="21000" height="21000"/>
  </clipPath>
  <clipPath id="presentation_clip_path_shrink" clipPathUnits="userSpaceOnUse">
   <rect x="21" y="21" width="20958" height="20958"/>
  </clipPath>
 </defs>
 <defs class="TextShapeIndex">
  <g ooo:slide="id1" ooo:id-list="id3 id4"/>
 </defs>
 <defs class="EmbeddedBulletChars">
  <g id="bullet-char-template-57356" transform="scale(0.00048828125,-0.00048828125)">
   <path d="M 580,1141 L 1163,571 580,0 -4,571 580,1141 Z"/>
  </g>
  <g id="bullet-char-template-57354" transform="scale(0.00048828125,-0.00048828125)">
   <path d="M 8,1128 L 1137,1128 1137,0 8,0 8,1128 Z"/>
  </g>
  <g id="bullet-char-template-10146" transform="scale(0.00048828125,-0.00048828125)">
   <path d="M 174,0 L 602,739 174,1481 1456,739 174,0 Z M 1358,739 L 309,1346 659,739 1358,739 Z"/>
  </g>
  <g id="bullet-char-template-10132" transform="scale(0.00048828125,-0.00048828125)">
   <path d="M 2015,739 L 1276,0 717,0 1260,543 174,543 174,936 1260,936 717,1481 1274,1481 2015,739 Z"/>
  </g>
  <g id="bullet-char-template-10007" transform="scale(0.00048828125,-0.00048828125)">
   <path d="M 0,-2 C -7,14 -16,27 -25,37 L 356,567 C 262,823 215,952 215,954 215,979 228,992 255,992 264,992 276,990 289,987 310,991 331,999 354,1012 L 381,999 492,748 772,1049 836,1024 860,1049 C 881,1039 901,1025 922,1006 886,937 835,863 770,784 769,783 710,716 594,584 L 774,223 C 774,196 753,168 711,139 L 727,119 C 717,90 699,76 672,76 641,76 570,178 457,381 L 164,-76 C 142,-110 111,-127 72,-127 30,-127 9,-110 8,-76 1,-67 -2,-52 -2,-32 -2,-23 -1,-13 0,-2 Z"/>
  </g>
  <g id="bullet-char-template-10004" transform="scale(0.00048828125,-0.00048828125)">
   <path d="M 285,-33 C 182,-33 111,30 74,156 52,228 41,333 41,471 41,549 55,616 82,672 116,743 169,778 240,778 293,778 328,747 346,684 L 369,508 C 377,444 397,411 428,410 L 1163,1116 C 1174,1127 1196,1133 1229,1133 1271,1133 1292,1118 1292,1087 L 1292,965 C 1292,929 1282,901 1262,881 L 442,47 C 390,-6 338,-33 285,-33 Z"/>
  </g>
  <g id="bullet-char-template-9679" transform="scale(0.00048828125,-0.00048828125)">
   <path d="M 813,0 C 632,0 489,54 383,161 276,268 223,411 223,592 223,773 276,916 383,1023 489,1130 632,1184 813,1184 992,1184 1136,1130 1245,1023 1353,916 1407,772 1407,592 1407,412 1353,268 1245,161 1136,54 992,0 813,0 Z"/>
  </g>
  <g id="bullet-char-template-8226" transform="scale(0.00048828125,-0.00048828125)">
   <path d="M 346,457 C 273,457 209,483 155,535 101,586 74,649 74,723 74,796 101,859 155,911 209,963 273,989 346,989 419,989 480,963 531,910 582,859 608,796 608,723 608,648 583,586 532,535 482,483 420,457 346,457 Z"/>
  </g>
  <g id="bullet-char-template-8211" transform="scale(0.00048828125,-0.00048828125)">
   <path d="M -4,459 L 1135,459 1135,606 -4,606 -4,459 Z"/>
  </g>
  <g id="bullet-char-template-61548" transform="scale(0.00048828125,-0.00048828125)">
   <path d="M 173,740 C 173,903 231,1043 346,1159 462,1274 601,1332 765,1332 928,1332 1067,1274 1183,1159 1299,1043 1357,903 1357,740 1357,577 1299,437 1183,322 1067,206 928,148 765,148 601,148 462,206 346,322 231,437 173,577 173,740 Z"/>
  </g>
 </defs>
 <g>
  <g id="id2" class="Master_Slide">
   <g id="bg-id2" class="Background"/>
   <g id="bo-id2" class="BackgroundObjects"/>
  </g>
 </g>
 <g class="SlideGroup">
  <g>
   <g id="container-id1">
    <g id="id1" class="Slide" clip-path="url(#presentation_clip_path)">
     <g class="Page">
      <g class="com.sun.star.drawing.CustomShape">
       <g id="id3">
        <rect class="BoundingBox" stroke="none" fill="none" x="0" y="0" width="21002" height="21002"/>
        <g>
         <defs>
          <linearGradient id="gradient1" x1="10500" y1="0" x2="10500" y2="21001" gradientUnits="userSpaceOnUse">
           <stop offset="0" style="stop-color:rgb(255,255,0)"/>
           <stop offset="1" style="stop-color:rgb(200,175,40)"/>
          </linearGradient>
         </defs>
         <path style="fill:url(#gradient1)" d="M 21001,10501 L 20978,11190 20911,11874 20799,12551 20643,13218 20444,13874 20203,14516 19919,15142 19594,15751 19230,16336 18829,16895 18394,17425 17925,17925 17425,18394 16895,18829 16336,19230 15751,19594 15142,19919 14516,20203 13874,20444 13218,20643 12551,20799 11874,20911 11190,20978 10501,21001 9811,20978 9127,20911 8450,20799 7783,20643 7127,20444 6485,20203 5859,19919 5250,19594 4665,19230 4106,18829 3576,18394 3076,17925 2607,17425 2172,16895 1771,16336 1407,15751 1082,15142 798,14516 557,13874 358,13218 202,12551 90,11874 23,11190 0,10501 23,9811 90,9127 202,8450 358,7783 557,7127 798,6485 1082,5859 1407,5250 1771,4665 2172,4106 2607,3576 3076,3076 3576,2607 4106,2172 4665,1771 5250,1407 5859,1082 6485,798 7127,557 7783,358 8450,202 9127,90 9811,23 10500,0 11190,23 11874,90 12551,202 13218,358 13874,557 14516,798 15142,1082 15751,1407 16336,1771 16895,2172 17425,2607 17925,3076 18394,3576 18829,4106 19230,4665 19594,5250 19919,5859 20203,6485 20444,7127 20643,7783 20799,8450 20911,9127 20978,9811 21001,10500 21001,10501 Z"/>
        </g>
       </g>
      </g>
      <g class="com.sun.star.drawing.ClosedBezierShape">
       <g id="id4">
        <rect class="BoundingBox" stroke="none" fill="none" x="4042" y="2987" width="12919" height="14219"/>
        <g>
         <defs>
          <linearGradient id="gradient2" x1="10501" y1="2988" x2="10501" y2="17205" gradientUnits="userSpaceOnUse">
           <stop offset="0" style="stop-color:rgb(0,0,0)"/>
           <stop offset="1" style="stop-color:rgb(53,53,53)"/>
          </linearGradient>
         </defs>
         <path style="fill:url(#gradient2)" d="M 13685,15339 L 13686,15337 10621,12272 7458,15433 7459,15434 5688,17205 5473,16855 5271,16489 5083,16109 4908,15715 4708,15198 4534,14665 4385,14119 4263,13561 4167,12993 4098,12418 4057,11836 4043,11249 4057,10663 4098,10081 4167,9506 4263,8938 4385,8380 4534,7834 4708,7301 4908,6784 5132,6286 5379,5811 5646,5360 5935,4934 6242,4536 6568,4165 6912,3825 7272,3515 7462,3369 7654,3233 7850,3106 8048,2988 7888,3252 7734,3532 7587,3827 7447,4137 7315,4461 7191,4799 6967,5512 6839,6006 6727,6514 6632,7035 6553,7567 6492,8108 6448,8658 6421,9213 6412,9772 6439,10747 6520,11706 6654,12638 6740,13092 6838,13535 10614,9760 10619,9765 10626,9758 14292,13425 14465,12552 14590,11646 14666,10717 14691,9772 14683,9213 14656,8658 14612,8108 14550,7567 14472,7035 14377,6514 14265,6006 14137,5512 13924,4830 13806,4507 13681,4196 13550,3897 13411,3612 13267,3341 13116,3083 13272,3182 13427,3287 13579,3398 13730,3515 14090,3825 14434,4165 14760,4536 15068,4934 15356,5360 15623,5811 15870,6286 16094,6784 16294,7301 16468,7834 16617,8380 16739,8938 16835,9506 16904,10081 16945,10663 16959,11249 16945,11836 16904,12418 16835,12993 16739,13561 16617,14119 16468,14665 16294,15198 16094,15715 15938,16068 15772,16410 15594,16741 15406,17059 13685,15339 Z"/>
        </g>
       </g>
      </g>
     </g>
    </g>
   </g>
  </g>
 </g>
</svg>